PathFileType	4	(X/Y/Z)	G:/Ayumi_testdata/vicon/updated_static_jc/static_00.trc	
DataRate	CameraRate	NumFrames	NumMarkers	Units	OrigDataRate	OrigDataStartFrame	OrigNumFrames	
200.00	200.00	4	66	mm	200.00	74	295	
Frame#	Time	LASI			RASI			RSACR			LSACR			USACR			LBAR			RBAR			RHEE			RMT1			RMT5			RMT2			LHEE			LMT1			LMT5			LMT2			LMMAL			LMFC			LLFC			LLMAL			LTIB4			LTIB2			LTIB3			LTIB1			RMMAL			RMFC			RLFC			RLMAL			RTIB1			RTIB2			RTIB3			RTHI1			RTHI4			RTHI3			RTHI2			LTHI1			LTHI4			LTHI3			LTHI2			FHD			LBHD			RBHD			C7			T10			CLAV			LSHO			RSHO			LRAD			LUL			LRFIN			RRAD			RUL			RUFIN			RLEP			RMEP			LLEP			LMEP			LDUPA			LMUPA			LUUPA			RDUPA			RUUPA			RMUPA			RKJC			LKJC			LAKJC			RAKJC			
		X1	Y1	Z1	X2	Y2	Z2	X3	Y3	Z3	X4	Y4	Z4	X5	Y5	Z5	X6	Y6	Z6	X7	Y7	Z7	X8	Y8	Z8	X9	Y9	Z9	X10	Y10	Z10	X11	Y11	Z11	X12	Y12	Z12	X13	Y13	Z13	X14	Y14	Z14	X15	Y15	Z15	X16	Y16	Z16	X17	Y17	Z17	X18	Y18	Z18	X19	Y19	Z19	X20	Y20	Z20	X21	Y21	Z21	X22	Y22	Z22	X23	Y23	Z23	X24	Y24	Z24	X25	Y25	Z25	X26	Y26	Z26	X27	Y27	Z27	X28	Y28	Z28	X29	Y29	Z29	X30	Y30	Z30	X31	Y31	Z31	X32	Y32	Z32	X33	Y33	Z33	X34	Y34	Z34	X35	Y35	Z35	X36	Y36	Z36	X37	Y37	Z37	X38	Y38	Z38	X39	Y39	Z39	X40	Y40	Z40	X41	Y41	Z41	X42	Y42	Z42	X43	Y43	Z43	X44	Y44	Z44	X45	Y45	Z45	X46	Y46	Z46	X47	Y47	Z47	X48	Y48	Z48	X49	Y49	Z49	X50	Y50	Z50	X51	Y51	Z51	X52	Y52	Z52	X53	Y53	Z53	X54	Y54	Z54	X55	Y55	Z55	X56	Y56	Z56	X57	Y57	Z57	X58	Y58	Z58	X59	Y59	Z59	X60	Y60	Z60	X61	Y61	Z61	X62	Y62	Z62	X63	Y63	Z63	X64	Y64	Z64	X65	Y65	Z65	X66	Y66	Z66	

74	0.365	133.63255	762.53979	918.03418	129.38286	984.88751	918.65753	309.11664	912.62671	950.41663	308.28601	852.70013	953.62720	297.39081	882.57867	966.75885	1270.81335	-346.49860	26.29666	1226.43481	1876.97839	26.27076	323.05133	1019.65552	39.83379	128.14818	1043.32642	43.45639	165.07501	1113.67993	34.82156	140.17923	1079.98486	42.67977	326.26279	745.15771	45.84430	134.38771	736.45935	46.34426	169.95728	662.79651	33.44782	143.16347	698.04181	45.93413	276.69040	778.68085	72.95649	232.97339	829.26440	456.90103	219.40915	721.60205	454.01810	278.80188	700.99640	69.16550	290.31561	691.57355	209.66805	313.95517	691.56262	271.01468	263.51959	684.64948	268.21420	301.57117	687.34161	314.34714	275.16479	994.10535	68.38321	235.35210	935.55157	446.61145	220.67197	1041.44983	461.38065	284.67398	1068.60437	72.25913	257.16736	1082.83850	319.33453	307.61551	1077.27979	314.03821	276.64633	1081.42847	256.19922	241.85550	1060.24670	784.00146	243.00958	1064.70654	635.27460	191.54077	1066.84497	637.11908	219.34238	1070.31104	697.13043	238.54274	699.06677	778.98315	236.41641	694.91711	646.52820	185.84956	693.65192	637.49152	200.29213	689.60864	701.23767	129.89342	775.10669	1592.94287	240.64880	786.06476	1575.96582	252.26010	909.55713	1571.54358	262.47623	857.66571	1391.41956	285.38144	877.69196	1007.69202	139.90900	872.72388	1328.51868	243.79231	724.74329	1380.88647	236.07199	986.67407	1397.05481	163.94345	222.49670	1357.76282	204.55246	222.09792	1353.26599	150.50240	130.60103	1337.12073	240.59157	1500.50293	1389.54248	287.48080	1499.62695	1383.42468	234.85976	1590.64954	1391.77539	292.88065	1271.18164	1330.16980	254.61716	1271.71582	1296.57947	219.98711	453.86249	1299.99976	179.17154	466.66077	1277.56299	236.11232	505.81339	1353.76038	200.23077	536.35126	1371.34424	237.25160	584.99225	1362.25793	265.78842	1205.62500	1382.54919	256.49612	1143.91174	1384.28113	215.61565	1212.13245	1385.53882	228.01203	988.50070	453.99605	226.19127	775.43323	455.45956	277.74614	739.83862	71.06100	279.91939	1031.35486	70.32117 
75	0.370	133.60062	762.53223	918.02332	129.35999	984.89355	918.65717	309.09183	912.61774	950.41394	308.24823	852.70612	953.62720	297.35867	882.57660	966.76288	1270.82520	-346.51678	26.30844	1226.43579	1876.97522	26.27340	323.05261	1019.65735	39.82558	128.14803	1043.33447	43.44669	165.07048	1113.67773	34.82123	140.17802	1079.98145	42.67474	326.26270	745.16412	45.84708	134.37946	736.45648	46.33961	169.95511	662.79443	33.46511	143.16728	698.04620	45.92390	276.69244	778.68176	72.96095	232.94542	829.26776	456.90070	219.38890	721.60162	454.01227	278.79172	700.98846	69.16190	290.29895	691.57648	209.66707	313.98459	691.23590	271.36191	263.51593	684.65393	268.23105	301.57718	687.32159	314.36832	275.16422	994.11554	68.38051	235.32999	935.55115	446.60651	220.64896	1041.45618	461.38034	284.66345	1068.60718	72.25536	257.14828	1082.84998	319.33887	307.60501	1077.27844	314.05750	276.62564	1081.43359	256.19797	241.84050	1060.24768	783.99689	243.03587	1064.85254	635.40820	191.51540	1066.85754	637.12042	219.31120	1070.31384	697.11292	238.52269	699.06592	778.97406	236.46521	695.49036	646.57928	185.82338	693.68927	637.48242	200.24004	689.60864	701.21729	129.88713	775.11230	1592.94470	240.65001	786.04974	1575.95581	252.27246	909.53943	1571.54297	262.48184	857.67670	1391.41431	285.35196	877.69257	1007.68237	139.91017	872.72717	1328.52466	243.79797	724.75433	1380.90649	236.07755	986.68079	1397.05127	163.95511	222.49675	1357.74695	204.56718	222.10413	1353.24731	150.51392	130.61169	1337.09656	240.62451	1500.50671	1389.50427	287.50174	1499.63635	1383.39514	234.88350	1590.66064	1391.73047	292.88580	1271.17480	1330.15771	254.61728	1271.71228	1296.56738	219.98016	453.87823	1299.99585	179.17363	466.66260	1277.55737	236.12486	505.81250	1353.77185	200.22261	536.37561	1371.35083	237.31064	584.97925	1362.40662	265.79547	1205.60413	1382.57825	256.49631	1143.91101	1384.26794	215.61829	1212.13733	1385.53345	227.98947	988.50366	453.99342	226.16716	775.43469	455.45648	277.74208	739.83511	71.06142	279.91383	1031.36136	70.31793 
76	0.375	133.57854	762.53693	918.02100	129.32881	984.88861	918.65759	309.06274	912.61371	950.41553	308.23126	852.68933	953.61456	297.32599	882.57312	966.76038	1270.80981	-346.48782	26.28064	1226.43042	1876.97217	26.27536	323.05386	1019.66309	39.83163	128.14503	1043.33252	43.44975	165.06207	1113.68774	34.82522	140.18198	1079.98352	42.67832	326.26474	745.17078	45.84574	134.38202	736.45966	46.34051	169.95546	662.79218	33.45697	143.16792	698.05054	45.93033	276.69086	778.68103	72.96250	232.95377	829.25909	456.88718	219.37639	721.60864	454.00943	278.80283	700.99072	69.16329	290.28729	691.57690	209.67136	313.97876	691.23969	271.37189	263.48764	684.65369	268.22720	301.56418	687.32806	314.37549	275.15765	994.11359	68.37695	235.30730	935.55420	446.61316	220.62680	1041.45300	461.37930	284.67264	1068.60876	72.25407	257.13641	1082.85547	319.32794	307.58105	1077.28369	314.04926	276.60861	1081.43896	256.20267	241.78741	1060.24756	783.99091	242.95464	1064.68811	635.26086	191.49319	1066.86450	637.10742	219.31871	1070.30347	697.11450	238.49019	699.07086	778.97424	236.50243	694.76288	646.80981	185.80078	693.69830	637.48199	200.23323	689.60626	701.21381	129.87630	775.11151	1592.94299	240.65784	786.03467	1575.95288	252.28889	909.53467	1571.53748	262.51068	857.66132	1391.39636	285.32632	877.68457	1007.67468	139.92719	872.73621	1328.52808	243.81245	724.74921	1380.90271	236.07263	986.68585	1397.04468	163.97885	222.50273	1357.73108	204.56708	222.10384	1353.22083	150.52516	130.60600	1337.06396	240.65085	1500.51501	1389.46118	287.53406	1499.61780	1383.34155	234.93108	1590.67834	1391.67041	292.88690	1271.17493	1330.13684	254.60815	1271.71631	1296.54993	219.99783	453.88144	1299.99011	179.18060	466.67453	1277.54773	236.13947	505.82285	1353.75366	200.23631	536.36322	1371.34619	237.35213	584.95428	1362.43237	265.80118	1205.61572	1382.52393	256.48795	1143.91748	1384.25500	215.62852	1212.14282	1385.51392	227.96705	988.50360	453.99623	226.16508	775.43387	455.44830	277.74684	739.83588	71.06290	279.91515	1031.36118	70.31551 
77	0.380	133.54570	762.53052	918.01849	129.29971	984.89618	918.65753	309.03220	912.62024	950.40942	308.19708	852.69885	953.62103	297.29782	882.56812	966.75262	1270.84448	-346.46820	26.31373	1226.42651	1876.95520	26.26586	323.04810	1019.66162	39.83209	128.13780	1043.33875	43.45761	165.06329	1113.68860	34.82217	140.17516	1079.98486	42.68034	326.25137	745.17719	45.83938	134.37817	736.46295	46.33994	169.95746	662.80396	33.45063	143.16560	698.04761	45.92649	276.69882	778.68060	72.96123	232.90941	829.26044	456.88556	219.36279	721.61102	454.01266	278.79123	700.99457	69.15353	290.28922	691.58435	209.66956	313.87482	691.39905	271.26590	263.48914	684.65607	268.22162	301.50995	687.35486	314.37457	275.15967	994.11780	68.38124	235.28366	935.55310	446.60977	220.61952	1041.45166	461.37592	284.67307	1068.61353	72.26041	257.12717	1082.85803	319.32852	307.56766	1077.28516	314.05505	276.59424	1081.43201	256.19818	241.77654	1060.25085	783.99756	242.98352	1064.84180	635.42224	191.47322	1066.88599	637.12054	219.29578	1070.29248	697.08740	238.44078	699.06842	778.97076	236.44221	695.39185	646.56573	185.79161	693.69086	637.47418	200.20587	689.62396	701.18896	129.87486	775.11938	1592.94788	240.64644	786.02728	1575.97485	252.30925	909.51782	1571.54028	262.50903	857.66272	1391.38684	285.29800	877.68317	1007.67078	139.93987	872.73047	1328.52417	243.79823	724.76007	1380.87146	236.07985	986.69348	1397.04016	163.99503	222.50418	1357.71106	204.57111	222.11670	1353.20361	150.53664	130.61432	1337.02588	240.67377	1500.52393	1389.42053	287.56302	1499.62329	1383.31543	234.94460	1590.68787	1391.61499	292.88986	1271.16821	1330.12390	254.64610	1271.69678	1296.53259	219.99577	453.89990	1299.98254	179.18834	466.68283	1277.55188	236.14238	505.82324	1353.75049	200.25653	536.37109	1371.33533	237.34181	584.99243	1362.23059	265.80374	1205.60864	1382.54614	256.49515	1143.91675	1384.24963	215.62747	1212.14868	1385.50598	227.95159	988.50238	453.99284	226.13610	775.43573	455.44911	277.74503	739.83759	71.05738	279.91637	1031.36566	70.32082 
